<svg width="21" height="23" viewBox="0 0 21 23" fill="none" xmlns="http://www.w3.org/2000/svg">
<path fill-rule="evenodd" clip-rule="evenodd" d="M4.5 11C8.08985 11 11 8.08985 11 4.5C11 3.6141 10.8228 2.76959 10.5018 2C16.3 2.00099 21 6.70162 21 12.5C21 18.299 16.299 23 10.5 23C4.70101 23 0 18.299 0 12.5C0 11.4789 0.145769 10.4918 0.417632 9.55837C1.53346 10.46 2.95367 11 4.5 11ZM12.46 12.27C14.63 12.27 16.1 13.86 16.1 16.14C16.1 18.37 14.62 20 12.46 20H8.96997V12.27H12.46ZM12.46 18.63C13.78 18.63 14.56 17.55 14.56 16.14C14.56 14.71 13.77 13.64 12.46 13.64H10.45V18.63H12.46Z" fill="#0097B2"/>
<circle cx="4" cy="4" r="4" fill="#F8DC5B"/>
</svg>
