<svg width="101" height="23" viewBox="0 0 101 23" fill="none" xmlns="http://www.w3.org/2000/svg">
<path d="M28.46 9.27C30.63 9.27 32.1 10.86 32.1 13.14C32.1 15.37 30.62 17 28.46 17H24.97V9.27H28.46ZM28.46 15.63C29.78 15.63 30.56 14.55 30.56 13.14C30.56 11.71 29.77 10.64 28.46 10.64H26.45V15.63H28.46ZM35.1687 17H33.6888V9.27H35.1687V17ZM42.2972 10.64H38.5672V12.62H41.4172V13.92H38.5672V17H37.0872V9.27H42.2972V10.64ZM48.8364 17L48.1964 15.28H44.8364L44.1964 17H42.6364L45.6464 9.27H47.3764L50.4064 17H48.8364ZM45.3464 13.89H47.6764L46.5064 10.77L45.3464 13.89ZM56.9222 10.64H53.1922V12.62H56.0422V13.92H53.1922V17H51.7122V9.27H56.9222V10.64ZM64.7473 17H63.1373L61.7273 14.39C61.6073 14.4 61.4973 14.4 61.3773 14.4H59.9773V17H58.4973V9.27H61.4873C63.8273 9.27 64.6673 10.29 64.6673 11.84C64.6673 13 64.1473 13.79 63.0673 14.16L64.7473 17ZM59.9773 13.13H61.3773C62.4473 13.13 63.1573 12.84 63.1573 11.86C63.1573 10.88 62.5073 10.58 61.4873 10.58H59.9773V13.13ZM67.5711 17H66.0911V9.27H67.5711V17ZM74.6995 10.59H70.9195V12.39L73.8295 12.4V13.68H70.9195V15.68H74.6995V17H69.4895V9.27H74.6995V10.59ZM82.0819 9.27H83.5119V17H82.0819L77.8319 11.62V17H76.3919V9.27H77.8319L82.0819 14.67V9.27ZM88.9405 9.27C91.1105 9.27 92.5805 10.86 92.5805 13.14C92.5805 15.37 91.1005 17 88.9405 17H85.4505V9.27H88.9405ZM88.9405 15.63C90.2605 15.63 91.0405 14.55 91.0405 13.14C91.0405 11.71 90.2505 10.64 88.9405 10.64H86.9305V15.63H88.9405ZM93.6892 15.73L94.7792 14.79C95.3592 15.46 96.0692 15.83 96.8792 15.83C97.6792 15.83 98.2792 15.46 98.2792 14.88C98.2792 13.33 94.1192 13.83 94.1192 11.27C94.1192 9.93 95.2492 9.07 96.9292 9.07C97.9492 9.07 98.8692 9.38 99.6092 10.15L98.5792 11.06C98.0492 10.6 97.5492 10.34 96.8892 10.34C96.1192 10.34 95.6692 10.75 95.6692 11.2C95.6692 12.58 99.8192 12.13 99.8192 14.76C99.8192 16.25 98.4792 17.16 96.8492 17.16C95.5892 17.16 94.4692 16.62 93.6892 15.73Z" fill="#1E1E1E"/>
<path fill-rule="evenodd" clip-rule="evenodd" d="M4.5 11C8.08985 11 11 8.08985 11 4.5C11 3.6141 10.8228 2.76959 10.5018 2C16.3 2.00099 21 6.70162 21 12.5C21 18.299 16.299 23 10.5 23C4.70101 23 0 18.299 0 12.5C0 11.4789 0.145769 10.4918 0.417632 9.55837C1.53346 10.46 2.95367 11 4.5 11ZM12.46 12.27C14.63 12.27 16.1 13.86 16.1 16.14C16.1 18.37 14.62 20 12.46 20H8.96997V12.27H12.46ZM12.46 18.63C13.78 18.63 14.56 17.55 14.56 16.14C14.56 14.71 13.77 13.64 12.46 13.64H10.45V18.63H12.46Z" fill="#0097B2"/>
<circle cx="4" cy="4" r="4" fill="#F8DC5B"/>
</svg>
